<?xml version="1.0" encoding="iso-8859-1"?>
<!-- Generator: Adobe Illustrator 19.0.0, SVG Export Plug-In . SVG Version: 6.00 Build 0)  -->
<svg version="1.1" id="Capa_1" xmlns="http://www.w3.org/2000/svg" xmlns:xlink="http://www.w3.org/1999/xlink" x="0px" y="0px"
	 viewBox="0 0 384 384" style="enable-background:new 0 0 384 384;" xml:space="preserve">
<path style="fill:#FEDB41;" d="M351.6,153.508c-0.96-0.16-2-0.24-3.04-0.24H77.68v214.72h270.88c10.72,0,19.44-8.72,19.44-19.52
	v-175.68C368,163.108,360.88,154.948,351.6,153.508z"/>
<path style="fill:#FC1939;" d="M77.68,153.268v214.72H35.44c-10.72,0-19.44-8.72-19.44-19.52v-175.68
	c0-10.72,8.72-19.52,19.44-19.52H77.68z"/>
<path style="fill:#FCBF29;" d="M364.8,110.068l-13.2,43.44c-0.96-0.16-2-0.24-3.04-0.24H38.8l35.68-125.12
	c2.48-8.88,11.68-14,20.56-11.52l258.16,72.8C362.08,91.908,367.28,101.108,364.8,110.068z"/>
<rect x="130.4" y="208.468" style="fill:#FF4C5B;" width="184.88" height="54.24"/>
<g>
	<path style="fill:#3C3A41;" d="M370.832,145.252l9.28-30.536c0.032-0.12,0.072-0.248,0.104-0.368
		c4.832-17.384-5.36-35.48-22.664-40.312L99.344,1.22C81.968-3.62,63.92,6.524,59.096,23.764l-32.752,114.84
		C11.224,142.652,0,156.372,0,172.788v175.68c0,19.584,15.896,35.52,35.44,35.52h42.24h270.88c19.536,0,35.44-15.936,35.44-35.52
		v-175.68C384,161.86,378.88,151.844,370.832,145.252z M89.88,32.46c0.112-0.352,0.48-0.52,0.816-0.432l258.2,72.816
		c0.32,0.088,0.584,0.424,0.504,0.872l-9.584,31.552h-29.024l1.92-5.4c1.488-4.184,1.168-8.8-0.88-12.744s-5.648-6.848-9.92-8.032
		L126.048,62.396c-8.52-2.368-17.336,2.632-19.696,11.152s2.632,17.336,11.152,19.688l159.048,44.04H77.68H60L89.88,32.46z
		 M32,348.468v-175.68c0-1.904,1.568-3.52,3.44-3.52h3.36h22.88v182.72H35.44C33.536,351.988,32,350.412,32,348.468z M352,348.468
		c0,1.944-1.536,3.52-3.44,3.52H93.68V169.276l194.152,0.016c0.088,0,0.184,0.024,0.272,0.024c0.048,0,0.096-0.024,0.152-0.024
		h60.648h0.072l0,0c0.04,0.008,0.08,0,0.12,0.008c0.016,0,0.04,0,0.056,0.008v0.008c1.392,0.216,2.848,1.576,2.848,3.472V348.468z"
		/>
	<path style="fill:#3C3A41;" d="M315.28,192.468H130.4c-8.832,0-16,7.168-16,16v54.24c0,8.832,7.168,16,16,16h184.88
		c8.832,0,16-7.168,16-16v-54.24C331.28,199.636,324.12,192.468,315.28,192.468z M299.28,246.708H146.4v-22.24h152.88V246.708z"/>
	<path style="fill:#3C3A41;" d="M315.24,299.612h-17.608c-8.832,0-16,7.168-16,16s7.168,16,16,16h17.608c8.832,0,16-7.168,16-16
		S324.08,299.612,315.24,299.612z"/>
	<path style="fill:#3C3A41;" d="M244.832,299.612h-114.4c-8.832,0-16,7.168-16,16s7.168,16,16,16h114.4c8.832,0,16-7.168,16-16
		S253.672,299.612,244.832,299.612z"/>
</g>
<g>
</g>
<g>
</g>
<g>
</g>
<g>
</g>
<g>
</g>
<g>
</g>
<g>
</g>
<g>
</g>
<g>
</g>
<g>
</g>
<g>
</g>
<g>
</g>
<g>
</g>
<g>
</g>
<g>
</g>
</svg>
